<svg version="1.1" id="Layer_1" xmlns="http://www.w3.org/2000/svg" xmlns:xlink="http://www.w3.org/1999/xlink" x="0px" y="0px"
	 width="100%" viewBox="0 0 879 600" enable-background="new 0 0 879 600" xml:space="preserve">
<path fill="#FFFFFF" opacity="1.000000" stroke="none" 
	d="
M615.000000,601.000000 
	C410.000000,601.000000 205.500000,601.000000 1.000000,601.000000 
	C1.000000,401.000000 1.000000,201.000000 1.000000,1.000000 
	C294.000000,1.000000 587.000000,1.000000 880.000000,1.000000 
	C880.000000,201.000000 880.000000,401.000000 880.000000,601.000000 
	C791.833313,601.000000 703.666687,601.000000 615.000000,601.000000 
M665.837219,373.845276 
	C665.837219,373.845276 665.754395,373.699493 665.226257,373.898315 
	C665.025879,374.208832 664.825500,374.519348 664.005859,375.072601 
	C653.145630,384.393036 630.578491,386.746307 620.161560,372.287354 
	C619.800415,371.817230 619.439331,371.347107 619.034790,370.958130 
	C619.034790,370.958130 619.124084,370.935883 619.053650,370.197266 
	C618.412598,368.589325 617.771545,366.981384 617.251221,365.214417 
	C617.251221,365.214417 617.147278,365.043945 617.173645,364.098511 
	C617.120667,345.856720 617.091919,327.614807 617.005920,309.373169 
	C616.953552,298.271301 616.812927,287.169861 616.835510,275.130127 
	C616.838745,250.870651 616.869385,226.611145 616.834900,202.351730 
	C616.814331,187.902573 616.691284,173.453537 616.801270,158.343277 
	C616.738892,157.893845 616.676453,157.444427 616.805969,156.211121 
	C616.740234,155.143433 616.674500,154.075745 616.779968,152.172333 
	C615.017029,151.776993 613.254517,151.038040 611.491150,151.036163 
	C556.337158,150.977356 501.183136,150.987198 446.029114,151.005234 
	C444.040405,151.005890 442.051727,151.195435 439.173920,151.173309 
	C437.115021,151.350937 435.056091,151.528564 432.198029,151.471848 
	C428.490570,151.766663 424.783112,152.061478 420.253143,152.255310 
	C412.039612,153.499298 403.734772,154.320908 395.630859,156.072220 
	C376.785004,160.144913 359.253571,167.165283 346.333374,182.261215 
	C341.603638,187.787384 338.055603,194.324921 333.867889,200.550690 
	C330.963501,189.389053 327.991791,178.158600 325.126617,166.901031 
	C322.560791,156.819565 315.352081,150.998123 305.071381,150.994858 
	C248.595078,150.976959 192.118774,150.979034 135.642471,150.990723 
	C134.120453,150.991028 132.598465,151.178360 129.672867,151.370819 
	C134.646866,156.802109 138.586548,161.218185 142.649643,165.517624 
	C152.070740,175.486710 154.446030,187.274139 151.218475,200.229477 
	C133.385391,271.811432 115.437630,343.364777 97.521492,414.926025 
	C94.671982,426.307617 91.783432,437.679443 88.878952,449.190430 
	C119.854973,449.190430 150.241058,449.190430 180.748291,449.190430 
	C183.464691,437.573273 186.108307,426.267365 189.031235,414.248108 
	C189.355682,412.498383 189.680130,410.748627 190.323563,408.611633 
	C190.286575,408.301300 190.249603,407.990997 190.767822,407.100037 
	C190.907883,406.045380 191.047943,404.990753 191.267426,403.795044 
	C191.267426,403.795044 191.183899,403.656372 191.718277,403.147461 
	C191.793961,402.426300 191.869659,401.705139 192.002319,400.953949 
	C192.002319,400.953949 191.955307,400.909943 192.327591,400.259216 
	C192.680801,395.465027 195.264297,394.365662 199.917862,394.417023 
	C223.650864,394.679138 247.388382,394.517273 271.124237,394.551270 
	C274.757446,394.556458 278.390320,394.809265 281.990417,394.980713 
	C281.990417,394.980713 282.037079,394.983002 282.049438,395.735168 
	C282.655579,397.619965 283.261719,399.504791 283.773529,401.730896 
	C283.773529,401.730896 283.995972,402.006378 283.917786,402.693756 
	C284.222839,403.524200 284.527863,404.354645 284.877563,405.084625 
	C284.877563,405.084625 284.767609,405.085632 284.783234,405.894867 
	C285.565399,408.920044 286.347534,411.945251 287.052734,415.556305 
	C287.282928,416.072449 287.513153,416.588623 287.761017,417.928528 
	C289.122528,423.013336 290.484039,428.098145 291.881622,433.066345 
	C291.881622,433.066345 291.759705,433.072083 291.739777,433.807373 
	C292.106293,434.932556 292.472839,436.057739 292.880859,437.078400 
	C292.880859,437.078400 292.768402,437.080933 292.786346,437.905212 
	C293.653717,441.612640 294.521088,445.320068 295.513519,449.561981 
	C297.433899,449.561981 299.224670,449.562012 301.015442,449.561981 
	C341.181061,449.561005 381.346771,449.598358 421.512268,449.523224 
	C428.662872,449.509857 435.812653,449.029510 443.837830,448.864716 
	C445.562714,448.633850 447.287598,448.403015 449.789612,448.380829 
	C455.073486,447.639313 460.357330,446.897797 466.065887,446.448608 
	C466.376892,446.326691 466.687927,446.204773 467.852173,446.160034 
	C472.311920,445.139099 476.771667,444.118164 482.005585,443.116577 
	C499.780945,438.599670 514.838745,429.900299 525.704102,414.145721 
	C536.536560,433.731018 553.682861,443.548859 574.427246,448.000275 
	C592.019409,451.775299 609.795471,451.704742 627.620544,450.181976 
	C646.791199,448.544159 663.543701,442.090973 675.812317,425.657990 
	C676.649475,428.196228 677.383850,430.335052 678.061523,432.491760 
	C681.851807,444.553955 688.546204,449.527771 701.199158,449.536804 
	C730.030518,449.557373 758.861877,449.551117 787.693237,449.519348 
	C789.748657,449.517090 791.803772,449.218018 794.214600,449.029114 
	C786.878357,439.640137 779.973206,430.802856 773.071228,421.232391 
	C772.448730,419.657684 771.826172,418.082977 771.265381,415.872711 
	C771.137390,415.248871 771.009399,414.625031 770.985107,413.490112 
	C770.923401,413.327576 770.861633,413.165070 770.880432,412.250549 
	C770.818787,411.498596 770.757141,410.746613 770.867554,409.499268 
	C770.808350,409.334778 770.749146,409.170288 770.820068,408.076508 
	C770.829895,324.060181 770.840332,240.043823 770.842102,156.027481 
	C770.842163,155.033493 770.730469,154.039505 770.825317,152.201340 
	C769.228821,151.779953 767.633301,150.994965 766.035767,150.991043 
	C736.236267,150.917786 706.436462,150.937408 676.636780,150.937546 
	C675.192322,150.937561 673.747864,150.937546 671.926331,150.937546 
	C671.926331,153.241516 671.926331,155.034866 671.926331,156.828232 
	C671.926575,220.090164 671.953735,283.352142 671.884277,346.613983 
	C671.877563,352.741241 671.273193,358.867859 670.738464,365.196533 
	C670.738464,365.196533 670.762573,365.485168 670.236755,365.949707 
	C669.473999,367.622620 668.711304,369.295532 668.004211,370.991669 
	C668.004211,370.991669 667.962097,370.948059 667.449524,371.212311 
	C667.170654,371.704559 666.891785,372.196808 666.884399,372.947845 
	C666.884399,372.947845 666.644226,372.659790 666.159668,372.851837 
	C666.005127,373.152832 665.850586,373.453827 665.837219,373.845276 
M787.481323,173.241257 
	C794.089111,176.279129 799.806335,175.214600 803.465637,170.265030 
	C806.921082,165.591080 806.759460,159.359039 803.072876,155.120560 
	C798.454834,149.811142 790.240356,149.372086 785.353333,154.173401 
	C780.000305,159.432587 780.589783,166.996292 787.481323,173.241257 
z"/>
<path fill="#8C1E41" opacity="1.000000" stroke="none" 
	d="
M432.997192,151.706192 
	C435.056091,151.528564 437.115021,151.350937 439.954193,151.464691 
	C442.553833,151.836273 444.373199,151.986084 446.192596,151.986511 
	C499.055695,151.998932 551.918762,151.974884 604.781799,152.039963 
	C608.724548,152.044815 612.666504,152.670822 616.608765,153.008057 
	C616.674500,154.075745 616.740234,155.143433 616.454956,156.657181 
	C616.273987,157.736984 616.444153,158.370712 616.614258,159.004456 
	C616.691284,173.453537 616.814331,187.902573 616.834900,202.351730 
	C616.869385,226.611145 616.838745,250.870651 616.541443,275.932556 
	C616.169250,305.304901 616.081116,333.874878 616.060852,362.444855 
	C616.060242,363.310944 616.769165,364.177582 617.147278,365.043945 
	C617.147278,365.043945 617.251221,365.214417 617.154785,365.744110 
	C617.746948,367.827820 618.435547,369.381866 619.124084,370.935883 
	C619.124084,370.935883 619.034790,370.958130 619.058838,371.248779 
	C619.488708,371.987427 619.894531,372.435455 620.300415,372.883484 
	C630.578491,386.746307 653.145630,384.393036 664.611145,374.893433 
	C665.395752,374.376007 665.575073,374.037750 665.754395,373.699493 
	C665.754395,373.699493 665.837219,373.845276 666.048889,373.752350 
	C666.388428,373.326233 666.516357,372.993011 666.644287,372.659790 
	C666.644226,372.659790 666.884399,372.947845 667.067749,372.781372 
	C667.488098,372.059296 667.725098,371.503662 667.962097,370.948059 
	C667.962097,370.948059 668.004211,370.991669 668.363098,370.936768 
	C669.402222,369.083008 670.082397,367.284088 670.762573,365.485168 
	C670.762573,365.485168 670.738464,365.196533 671.136108,364.848206 
	C672.012451,361.753387 672.906006,359.007355 672.909302,356.260284 
	C672.987732,289.994843 673.013489,223.729202 672.875732,157.463959 
	C672.866638,153.072830 674.013000,151.835892 678.444946,151.866684 
	C707.080933,152.065720 735.718994,151.945953 764.356201,152.014969 
	C766.461914,152.020035 768.566040,152.686539 770.670898,153.045532 
	C770.730469,154.039505 770.842163,155.033493 770.842102,156.027481 
	C770.840332,240.043823 770.829895,324.060181 770.614136,408.633484 
	C770.503967,409.458496 770.599731,409.726593 770.695557,409.994659 
	C770.757141,410.746613 770.818787,411.498596 770.698975,412.728241 
	C770.638855,413.471008 770.760132,413.736084 770.881409,414.001190 
	C771.009399,414.625031 771.137390,415.248871 771.173462,416.597473 
	C771.743774,418.870026 772.405945,420.417786 773.068115,421.965576 
	C779.973206,430.802856 786.878357,439.640137 794.214600,449.029114 
	C791.803772,449.218018 789.748657,449.517090 787.693237,449.519348 
	C758.861877,449.551117 730.030518,449.557373 701.199158,449.536804 
	C688.546204,449.527771 681.851807,444.553955 678.061523,432.491760 
	C677.383850,430.335052 676.649475,428.196228 675.812317,425.657990 
	C663.543701,442.090973 646.791199,448.544159 627.620544,450.181976 
	C609.795471,451.704742 592.019409,451.775299 574.427246,448.000275 
	C553.682861,443.548859 536.536560,433.731018 525.704102,414.145721 
	C514.838745,429.900299 499.780945,438.599670 481.161224,443.074341 
	C475.877563,444.049011 471.438232,445.065948 466.998932,446.082855 
	C466.687927,446.204773 466.376892,446.326691 465.360840,446.259155 
	C459.441345,446.770538 454.226898,447.471344 449.012482,448.172150 
	C447.287598,448.403015 445.562714,448.633850 443.072021,448.569092 
	C440.487671,448.182861 438.669128,448.013702 436.850525,448.013123 
	C392.100708,447.999115 347.350891,448.002960 302.601074,448.003632 
	C300.642822,448.003662 298.684601,448.003662 297.334167,448.003662 
	C295.625092,443.915039 294.196747,440.497986 292.768402,437.080933 
	C292.768402,437.080933 292.880859,437.078400 292.913391,436.740143 
	C292.550507,435.291962 292.155121,434.182007 291.759705,433.072083 
	C291.759705,433.072083 291.881622,433.066345 291.916016,432.672485 
	C291.957977,430.953339 292.358429,429.470184 291.900940,428.331757 
	C290.411133,424.624603 291.875000,419.809357 287.743347,417.104767 
	C287.513153,416.588623 287.282928,416.072449 287.348389,414.982941 
	C288.860443,410.630554 287.397186,407.678192 284.767609,405.085632 
	C284.767609,405.085632 284.877563,405.084625 284.908325,404.780090 
	C284.624725,403.652466 284.310364,402.829437 283.995972,402.006378 
	C283.995972,402.006378 283.773529,401.730896 283.859650,401.122528 
	C283.309540,398.670441 282.673309,396.826721 282.037079,394.983002 
	C282.037079,394.983002 281.990417,394.980713 281.906677,394.572113 
	C279.979004,393.777893 278.136017,393.061920 276.290924,393.056488 
	C250.823837,392.981323 225.356430,393.002930 199.889114,393.003082 
	C192.062576,393.003113 192.062576,393.006226 191.955307,400.909943 
	C191.955307,400.909943 192.002319,400.953949 191.707672,401.222626 
	C191.336655,402.212982 191.260284,402.934692 191.183899,403.656372 
	C191.183899,403.656372 191.267426,403.795044 190.905014,404.122223 
	C190.432602,405.526489 190.322601,406.603577 190.212616,407.680664 
	C190.249603,407.990997 190.286575,408.301300 189.805023,408.870270 
	C189.108307,411.073090 188.930099,413.017273 188.751923,414.961456 
	C186.108307,426.267365 183.464691,437.573273 180.748291,449.190430 
	C150.241058,449.190430 119.854973,449.190430 88.878952,449.190430 
	C91.783432,437.679443 94.671982,426.307617 97.521492,414.926025 
	C115.437630,343.364777 133.385391,271.811432 151.218475,200.229477 
	C154.446030,187.274139 152.070740,175.486710 142.649643,165.517624 
	C138.586548,161.218185 134.646866,156.802109 129.672867,151.370819 
	C132.598465,151.178360 134.120453,150.991028 135.642471,150.990723 
	C192.118774,150.979034 248.595078,150.976959 305.071381,150.994858 
	C315.352081,150.998123 322.560791,156.819565 325.126617,166.901031 
	C327.991791,178.158600 330.963501,189.389053 333.867889,200.550690 
	C338.055603,194.324921 341.603638,187.787384 346.333374,182.261215 
	C359.253571,167.165283 376.785004,160.144913 395.630859,156.072220 
	C403.734772,154.320908 412.039612,153.499298 420.999084,152.519012 
	C425.495728,152.423859 429.246460,152.065033 432.997192,151.706192 
M564.553284,243.070038 
	C566.628662,241.692230 568.693481,240.298218 570.781616,238.939926 
	C575.375305,235.951797 580.039551,233.066025 584.530212,229.930908 
	C585.395203,229.326996 585.598022,227.774628 586.106323,226.659805 
	C584.919067,226.344147 583.710754,225.717621 582.550293,225.796478 
	C581.279541,225.882828 580.040588,226.589294 578.809143,227.079239 
	C564.629578,232.720703 550.467346,238.406052 536.261230,243.979752 
	C534.441162,244.693832 532.398743,244.841324 530.459351,245.251297 
	C543.453796,231.456909 557.787720,219.636261 569.917786,205.288513 
	C567.292786,204.957703 565.067627,205.203140 563.315247,206.244263 
	C549.892029,214.219116 536.577881,222.377274 523.179749,230.394775 
	C521.478638,231.412674 519.487671,231.946091 517.630981,232.703934 
	C527.640625,218.139618 537.931396,204.524979 548.113953,190.829849 
	C548.945557,189.711365 549.038269,188.043503 549.474304,186.630905 
	C549.109009,186.317795 548.743713,186.004684 548.378418,185.691574 
	C546.712830,186.538544 544.849792,187.138580 543.420837,188.281403 
	C539.915894,191.084473 536.621521,194.149963 533.223816,197.088272 
	C522.748047,206.147430 512.263550,215.196457 501.782501,224.249451 
	C501.622833,224.111450 501.463196,223.973450 501.303558,223.835434 
	C509.770569,206.707886 518.237610,189.580322 526.704651,172.452759 
	C526.043335,171.924820 525.382080,171.396866 524.720764,170.868927 
	C523.047974,172.045929 521.015686,172.925735 519.758667,174.446426 
	C508.734131,187.783783 497.802124,201.198669 486.968842,214.691849 
	C485.291687,216.780792 483.988739,217.490509 481.194702,216.588791 
	C474.724731,214.500687 468.158722,212.465622 461.475037,211.336029 
	C448.231537,209.097794 434.926483,208.873947 422.013763,213.420151 
	C413.867218,216.288300 407.712738,221.321152 406.254791,230.428314 
	C404.797485,239.531631 408.011505,247.040726 415.505676,252.092331 
	C421.802795,256.337036 428.508606,260.174744 435.463470,263.205933 
	C454.177094,271.362030 473.454742,278.286133 491.879303,287.025726 
	C510.413574,295.817383 526.681091,308.381348 533.473816,328.549133 
	C537.005920,339.036133 542.345398,343.294495 552.698669,344.922302 
	C566.468262,347.087189 579.978577,350.877594 593.644226,353.761566 
	C595.116699,354.072327 596.880432,353.002441 598.509094,352.572998 
	C597.483093,351.479095 596.659790,349.947449 595.397766,349.363403 
	C588.011658,345.945038 580.523315,342.747711 573.068848,339.477051 
	C563.470398,335.265717 553.871338,331.055511 544.272583,326.844818 
	C545.951538,325.919922 547.389893,325.841309 548.817444,325.932129 
	C562.601196,326.808960 576.382263,327.729950 590.166321,328.601898 
	C594.320251,328.864685 598.482117,329.146301 602.638733,329.123505 
	C603.706360,329.117676 604.767883,327.987762 605.832214,327.374207 
	C605.019531,326.495148 604.302246,325.488983 603.360352,324.782135 
	C602.741699,324.317841 601.803589,324.267029 601.000549,324.062500 
	C584.095093,319.757202 567.186218,315.465454 550.287842,311.132629 
	C549.244995,310.865265 548.283386,310.281128 545.983765,309.276123 
	C560.016418,308.011810 572.442566,306.902435 584.866516,305.768707 
	C591.489258,305.164307 598.123169,304.635254 604.716187,303.791626 
	C606.036560,303.622681 607.194397,302.183228 608.427185,301.329559 
	C607.268127,300.585388 606.178223,299.674866 604.926270,299.153870 
	C604.052307,298.790131 602.954163,298.981720 601.959717,298.887878 
	C584.152466,297.208038 566.345764,295.522400 548.538879,293.838043 
	C549.681458,292.370056 551.043701,291.631500 552.499634,291.254425 
	C564.242981,288.212769 576.005798,285.246155 587.758850,282.241638 
	C593.061646,280.886108 598.377502,279.571472 603.632568,278.049042 
	C604.514832,277.793457 605.117126,276.571655 605.848755,275.796295 
	C605.009644,275.140747 604.257324,274.252441 603.306030,273.897827 
	C602.425781,273.569672 601.328430,273.748871 600.333801,273.813812 
	C585.555786,274.778656 570.781982,275.812408 555.999756,276.705658 
	C552.178528,276.936554 548.331482,276.740387 543.123352,276.740387 
	C562.480469,267.636444 581.283203,260.672455 598.819885,250.490768 
	C596.611633,249.358612 594.591370,249.001068 592.743713,249.414429 
	C575.912842,253.179718 559.117493,257.103668 542.288208,260.875793 
	C541.337280,261.088928 540.179321,260.377960 538.504395,259.934845 
	C547.512573,254.090668 555.722168,248.764542 564.553284,243.070038 
M299.734741,351.230438 
	C313.660248,348.573273 327.251923,344.048035 341.549164,343.290680 
	C340.915466,344.460632 340.170166,345.083527 339.362732,345.611359 
	C325.873505,354.429321 312.356903,363.205658 298.910645,372.088531 
	C297.509918,373.013916 296.516357,374.555634 295.333893,375.811401 
	C295.762268,376.508179 296.190643,377.204956 296.619019,377.901764 
	C315.917816,371.568207 334.348358,362.763550 353.634338,356.231750 
	C340.145660,370.334900 324.920563,382.541199 312.167328,397.577942 
	C314.888275,397.793762 317.281189,397.486084 319.187042,396.356628 
	C332.765381,388.309448 346.236603,380.081665 359.765869,371.951233 
	C361.225464,371.074066 362.838074,370.451477 364.379700,369.710815 
	C363.436218,372.635590 361.999054,374.813019 360.432251,376.892883 
	C351.925507,388.185425 343.353180,399.428833 334.899445,410.760803 
	C333.782471,412.258057 333.214264,414.164734 332.391907,415.881775 
	C332.889374,416.324097 333.386871,416.766418 333.884338,417.208740 
	C335.614746,416.234222 337.553955,415.505798 339.041016,414.244415 
	C347.416473,407.140045 355.673553,399.896423 363.990692,392.723114 
	C368.709747,388.653076 373.466370,384.626709 378.206055,380.580688 
	C378.715057,382.451630 378.446503,383.673218 377.913818,384.766022 
	C375.376862,389.970978 372.753967,395.133911 370.188049,400.324860 
	C365.765625,409.271362 361.305328,418.200287 357.026154,427.215027 
	C356.506470,428.309784 357.006683,429.888611 357.034241,431.243103 
	C358.397980,430.880737 359.831879,430.671906 361.096863,430.093536 
	C361.766266,429.787445 362.126678,428.826263 362.652100,428.181580 
	C373.163361,415.284698 383.783356,402.474030 394.110321,389.431305 
	C396.373260,386.573273 398.062286,386.118225 401.480072,387.440552 
	C419.418060,394.380615 437.222443,393.890869 454.628693,385.440247 
	C471.360382,377.317078 470.582703,357.023895 459.916687,348.362885 
	C452.713959,342.514099 444.355469,337.615692 435.788330,334.022095 
	C419.740356,327.290680 402.979919,322.270569 386.858673,315.697723 
	C367.954468,307.990234 351.049774,297.318451 340.008667,279.261780 
	C339.370880,278.218750 337.736877,277.264191 336.505920,277.182617 
	C318.078339,275.961395 299.643311,274.839691 281.200256,273.883911 
	C279.557495,273.798767 277.846680,275.027191 276.167450,275.645569 
	C277.691010,276.627258 279.090668,278.076385 280.757324,278.518158 
	C296.825531,282.777161 312.941101,286.857178 329.034668,291.021057 
	C330.451111,291.387543 331.807495,291.986145 333.191772,292.476959 
	C332.233032,293.778534 331.499512,293.970673 330.754486,294.041626 
	C313.365570,295.698151 295.970245,297.291229 278.593109,299.062683 
	C276.795502,299.245972 275.104706,300.476746 273.364349,301.221497 
	C273.519714,301.921295 273.675110,302.621094 273.830505,303.320892 
	C294.093536,305.265991 314.356537,307.211090 334.619568,309.156219 
	C332.844727,310.778442 330.985504,311.291931 329.117157,311.770020 
	C312.692749,315.972992 296.256500,320.130646 279.860077,324.439972 
	C278.500336,324.797363 277.407013,326.168427 276.189941,327.068512 
	C277.673096,327.754700 279.191498,329.101715 280.633942,329.024780 
	C294.916840,328.262848 309.183258,327.198334 323.463257,326.373932 
	C327.887482,326.118500 332.338898,326.334137 336.777863,326.334137 
	C336.821442,326.591339 336.864990,326.848572 336.908539,327.105774 
	C318.908539,335.038116 300.908508,342.970459 282.194244,351.217590 
	C286.250946,354.125214 286.250946,354.125214 299.734741,351.230438 
M214.686142,313.051788 
	C212.446487,321.884735 210.206818,330.717651 207.884842,339.875244 
	C228.155472,339.875244 248.039978,339.875244 268.459595,339.875244 
	C258.451111,299.839508 248.541229,260.198090 238.631332,220.556671 
	C238.286926,220.555725 237.942535,220.554779 237.598145,220.553833 
	C230.031097,251.119324 222.464050,281.684814 214.686142,313.051788 
M555.738281,366.726807 
	C563.896545,369.977386 572.009949,373.350037 580.249878,376.378418 
	C581.951904,377.003876 584.125000,376.347717 586.080933,376.282288 
	C585.023560,374.818207 584.269897,372.897369 582.861633,371.960938 
	C569.354553,362.979340 555.741089,354.157562 542.142822,345.313416 
	C541.099121,344.634613 539.939575,344.134003 539.174194,343.730164 
	C536.037415,356.755402 541.797058,363.697693 554.104065,366.057159 
	C554.425354,366.118774 554.726379,366.286438 555.738281,366.726807 
M301.578217,251.904541 
	C297.363922,250.982330 293.176575,249.885559 288.921234,249.229645 
	C287.367920,248.990219 285.653076,249.798828 284.011932,250.129318 
	C285.181702,251.438614 286.097961,253.308990 287.560699,253.969803 
	C301.128906,260.099426 314.783508,266.038452 328.433014,271.986938 
	C331.074921,273.138306 333.803741,274.090210 337.342957,275.464325 
	C335.723175,270.412964 334.261261,266.429810 333.199188,262.342743 
	C332.470490,259.538727 330.915314,258.338867 328.152435,257.771393 
	C319.542175,256.002960 310.981140,253.994720 301.578217,251.904541 
M539.621216,382.399323 
	C547.489197,387.263306 555.293457,392.236084 563.273987,396.907776 
	C565.065491,397.956451 567.473511,397.951843 569.597717,398.432129 
	C569.971130,397.731140 570.344604,397.030121 570.718079,396.329132 
	C560.496460,386.791046 550.274780,377.252960 538.897705,366.636719 
	C538.897705,372.896881 538.897705,377.478027 539.621216,382.399323 
M322.390564,246.089264 
	C324.922882,247.647339 327.455200,249.205414 330.510193,251.085052 
	C330.307007,246.582581 330.299072,243.126038 329.907562,239.713486 
	C329.788818,238.678558 328.818848,237.262833 327.884186,236.874084 
	C318.730530,233.066971 309.533936,229.354980 300.254456,225.868942 
	C299.077057,225.426620 297.354187,226.436234 295.884033,226.773193 
	C296.613647,227.933655 297.075226,229.494904 298.115631,230.190704 
	C305.956421,235.434540 313.911011,240.508163 322.390564,246.089264 
M330.666412,212.947098 
	C324.591919,210.340256 319.964935,204.389450 312.046936,205.288651 
	C317.137817,212.550323 323.646973,218.218338 329.818237,224.219482 
	C330.454407,223.958008 331.090607,223.696518 331.726776,223.435043 
	C331.556366,220.099930 331.385925,216.764816 330.666412,212.947098 
M545.221436,416.486298 
	C546.598999,416.486298 547.976501,416.486298 549.354065,416.486298 
	C549.718323,416.048553 550.082581,415.610840 550.446838,415.173096 
	C545.425415,408.391388 540.403992,401.609650 535.079041,394.418060 
	C530.428223,403.766174 530.421875,403.773346 537.070496,409.641815 
	C539.552307,411.832397 542.071228,413.980988 545.221436,416.486298 
z"/>
<path fill="#8A3E58" opacity="1.000000" stroke="none" 
	d="
M770.748108,152.623444 
	C768.566040,152.686539 766.461914,152.020035 764.356201,152.014969 
	C735.718994,151.945953 707.080933,152.065720 678.444946,151.866684 
	C674.013000,151.835892 672.866638,153.072830 672.875732,157.463959 
	C673.013489,223.729202 672.987732,289.994843 672.909302,356.260284 
	C672.906006,359.007355 672.012451,361.753387 671.239990,364.747314 
	C671.273193,358.867859 671.877563,352.741241 671.884277,346.613983 
	C671.953735,283.352142 671.926575,220.090164 671.926331,156.828232 
	C671.926331,155.034866 671.926331,153.241516 671.926331,150.937546 
	C673.747864,150.937546 675.192322,150.937561 676.636780,150.937546 
	C706.436462,150.937408 736.236267,150.917786 766.035767,150.991043 
	C767.633301,150.994965 769.228821,151.779953 770.748108,152.623444 
z"/>
<path fill="#7E2946" opacity="1.000000" stroke="none" 
	d="
M292.777374,437.493073 
	C294.196747,440.497986 295.625092,443.915039 297.334167,448.003662 
	C298.684601,448.003662 300.642822,448.003662 302.601074,448.003632 
	C347.350891,448.002960 392.100708,447.999115 436.850525,448.013123 
	C438.669128,448.013702 440.487671,448.182861 442.634521,448.519104 
	C435.812653,449.029510 428.662872,449.509857 421.512268,449.523224 
	C381.346771,449.598358 341.181061,449.561005 301.015442,449.561981 
	C299.224670,449.562012 297.433899,449.561981 295.513519,449.561981 
	C294.521088,445.320068 293.653717,441.612640 292.777374,437.493073 
z"/>
<path fill="#7E2946" opacity="1.000000" stroke="none" 
	d="
M192.141449,400.584595 
	C192.062576,393.006226 192.062576,393.003113 199.889114,393.003082 
	C225.356430,393.002930 250.823837,392.981323 276.290924,393.056488 
	C278.136017,393.061920 279.979004,393.777893 281.923157,394.555542 
	C278.390320,394.809265 274.757446,394.556458 271.124237,394.551270 
	C247.388382,394.517273 223.650864,394.679138 199.917862,394.417023 
	C195.264297,394.365662 192.680801,395.465027 192.141449,400.584595 
z"/>
<path fill="#853B53" opacity="1.000000" stroke="none" 
	d="
M787.146179,173.058899 
	C780.589783,166.996292 780.000305,159.432587 785.353333,154.173401 
	C790.240356,149.372086 798.454834,149.811142 803.072876,155.120560 
	C806.759460,159.359039 806.921082,165.591080 803.465637,170.265030 
	C799.806335,175.214600 794.089111,176.279129 787.146179,173.058899 
M800.303162,169.970459 
	C803.800049,165.535538 804.119690,160.268661 801.117859,156.543411 
	C797.946899,152.608215 793.990295,151.995087 788.217957,154.895493 
	C786.953735,156.965195 785.225708,158.890640 784.527161,161.136307 
	C783.284424,165.131607 785.909302,170.014694 789.752747,171.925522 
	C793.535278,173.806122 796.611877,173.190033 800.303162,169.970459 
z"/>
<path fill="#772A42" opacity="1.000000" stroke="none" 
	d="
M616.694397,152.590195 
	C612.666504,152.670822 608.724548,152.044815 604.781799,152.039963 
	C551.918762,151.974884 499.055695,151.998932 446.192596,151.986511 
	C444.373199,151.986084 442.553833,151.836273 440.398743,151.526520 
	C442.051727,151.195435 444.040405,151.005890 446.029114,151.005234 
	C501.183136,150.987198 556.337158,150.977356 611.491150,151.036163 
	C613.254517,151.038040 615.017029,151.776993 616.694397,152.590195 
z"/>
<path fill="#772A42" opacity="1.000000" stroke="none" 
	d="
M617.160461,364.571228 
	C616.769165,364.177582 616.060242,363.310944 616.060852,362.444855 
	C616.081116,333.874878 616.169250,305.304901 616.479736,276.401581 
	C616.812927,287.169861 616.953552,298.271301 617.005920,309.373169 
	C617.091919,327.614807 617.120667,345.856720 617.160461,364.571228 
z"/>
<path fill="#7E2946" opacity="1.000000" stroke="none" 
	d="
M287.752197,417.516663 
	C291.875000,419.809357 290.411133,424.624603 291.900940,428.331757 
	C292.358429,429.470184 291.957977,430.953339 291.897949,432.730804 
	C290.484039,428.098145 289.122528,423.013336 287.752197,417.516663 
z"/>
<path fill="#7E2946" opacity="1.000000" stroke="none" 
	d="
M467.425537,446.121460 
	C471.438232,445.065948 475.877563,444.049011 480.774139,443.064636 
	C476.771667,444.118164 472.311920,445.139099 467.425537,446.121460 
z"/>
<path fill="#7E2946" opacity="1.000000" stroke="none" 
	d="
M449.401062,448.276489 
	C454.226898,447.471344 459.441345,446.770538 465.148499,446.113037 
	C460.357330,446.897797 455.073486,447.639313 449.401062,448.276489 
z"/>
<path fill="#7E2946" opacity="1.000000" stroke="none" 
	d="
M284.775421,405.490234 
	C287.397186,407.678192 288.860443,410.630554 287.386841,414.690002 
	C286.347534,411.945251 285.565399,408.920044 284.775421,405.490234 
z"/>
<path fill="#772A42" opacity="1.000000" stroke="none" 
	d="
M432.597595,151.589020 
	C429.246460,152.065033 425.495728,152.423859 421.410339,152.569504 
	C424.783112,152.061478 428.490570,151.766663 432.597595,151.589020 
z"/>
<path fill="#7E2946" opacity="1.000000" stroke="none" 
	d="
M188.891571,414.604797 
	C188.930099,413.017273 189.108307,411.073090 189.645538,409.063904 
	C189.680130,410.748627 189.355682,412.498383 188.891571,414.604797 
z"/>
<path fill="#8A3E58" opacity="1.000000" stroke="none" 
	d="
M670.499634,365.717438 
	C670.082397,367.284088 669.402222,369.083008 668.335327,370.925171 
	C668.711304,369.295532 669.473999,367.622620 670.499634,365.717438 
z"/>
<path fill="#7E2946" opacity="1.000000" stroke="none" 
	d="
M282.043274,395.359070 
	C282.673309,396.826721 283.309540,398.670441 283.906799,400.951874 
	C283.261719,399.504791 282.655579,397.619965 282.043274,395.359070 
z"/>
<path fill="#8A3E58" opacity="1.000000" stroke="none" 
	d="
M773.069702,421.598969 
	C772.405945,420.417786 771.743774,418.870026 771.142639,416.915222 
	C771.826172,418.082977 772.448730,419.657684 773.069702,421.598969 
z"/>
<path fill="#772A42" opacity="1.000000" stroke="none" 
	d="
M619.088867,370.566589 
	C618.435547,369.381866 617.746948,367.827820 617.094482,365.823608 
	C617.771545,366.981384 618.412598,368.589325 619.088867,370.566589 
z"/>
<path fill="#7E2946" opacity="1.000000" stroke="none" 
	d="
M291.749756,433.439728 
	C292.155121,434.182007 292.550507,435.291962 292.892639,436.792419 
	C292.472839,436.057739 292.106293,434.932556 291.749756,433.439728 
z"/>
<path fill="#772A42" opacity="1.000000" stroke="none" 
	d="
M616.707764,158.673859 
	C616.444153,158.370712 616.273987,157.736984 616.358948,157.049118 
	C616.676453,157.444427 616.738892,157.893845 616.707764,158.673859 
z"/>
<path fill="#7E2946" opacity="1.000000" stroke="none" 
	d="
M283.956879,402.350067 
	C284.310364,402.829437 284.624725,403.652466 284.885986,404.830322 
	C284.527863,404.354645 284.222839,403.524200 283.956879,402.350067 
z"/>
<path fill="#7E2946" opacity="1.000000" stroke="none" 
	d="
M190.490219,407.390350 
	C190.322601,406.603577 190.432602,405.526489 190.865295,404.192749 
	C191.047943,404.990753 190.907883,406.045380 190.490219,407.390350 
z"/>
<path fill="#7E2946" opacity="1.000000" stroke="none" 
	d="
M191.451080,403.401917 
	C191.260284,402.934692 191.336655,402.212982 191.679199,401.237640 
	C191.869659,401.705139 191.793961,402.426300 191.451080,403.401917 
z"/>
<path fill="#8A3E58" opacity="1.000000" stroke="none" 
	d="
M667.705811,371.080200 
	C667.725098,371.503662 667.488098,372.059296 666.932007,372.651978 
	C666.891785,372.196808 667.170654,371.704559 667.705811,371.080200 
z"/>
<path fill="#772A42" opacity="1.000000" stroke="none" 
	d="
M620.230957,372.585419 
	C619.894531,372.435455 619.488708,371.987427 619.080566,371.208191 
	C619.439331,371.347107 619.800415,371.817230 620.230957,372.585419 
z"/>
<path fill="#8A3E58" opacity="1.000000" stroke="none" 
	d="
M665.490356,373.798889 
	C665.575073,374.037750 665.395752,374.376007 664.920776,374.772095 
	C664.825500,374.519348 665.025879,374.208832 665.490356,373.798889 
z"/>
<path fill="#8A3E58" opacity="1.000000" stroke="none" 
	d="
M666.401978,372.755798 
	C666.516357,372.993011 666.388428,373.326233 665.978271,373.707123 
	C665.850586,373.453827 666.005127,373.152832 666.401978,372.755798 
z"/>
<path fill="#8A3E58" opacity="1.000000" stroke="none" 
	d="
M770.781494,409.746948 
	C770.599731,409.726593 770.503967,409.458496 770.549072,409.098114 
	C770.749146,409.170288 770.808350,409.334778 770.781494,409.746948 
z"/>
<path fill="#8A3E58" opacity="1.000000" stroke="none" 
	d="
M770.933228,413.745667 
	C770.760132,413.736084 770.638855,413.471008 770.658752,413.104248 
	C770.861633,413.165070 770.923401,413.327576 770.933228,413.745667 
z"/>
<path fill="#FDFAFB" opacity="1.000000" stroke="none" 
	d="
M564.242554,243.254227 
	C555.722168,248.764542 547.512573,254.090668 538.504395,259.934845 
	C540.179321,260.377960 541.337280,261.088928 542.288208,260.875793 
	C559.117493,257.103668 575.912842,253.179718 592.743713,249.414429 
	C594.591370,249.001068 596.611633,249.358612 598.819885,250.490768 
	C581.283203,260.672455 562.480469,267.636444 543.123352,276.740387 
	C548.331482,276.740387 552.178528,276.936554 555.999756,276.705658 
	C570.781982,275.812408 585.555786,274.778656 600.333801,273.813812 
	C601.328430,273.748871 602.425781,273.569672 603.306030,273.897827 
	C604.257324,274.252441 605.009644,275.140747 605.848755,275.796295 
	C605.117126,276.571655 604.514832,277.793457 603.632568,278.049042 
	C598.377502,279.571472 593.061646,280.886108 587.758850,282.241638 
	C576.005798,285.246155 564.242981,288.212769 552.499634,291.254425 
	C551.043701,291.631500 549.681458,292.370056 548.538879,293.838043 
	C566.345764,295.522400 584.152466,297.208038 601.959717,298.887878 
	C602.954163,298.981720 604.052307,298.790131 604.926270,299.153870 
	C606.178223,299.674866 607.268127,300.585388 608.427185,301.329590 
	C607.194397,302.183228 606.036560,303.622681 604.716187,303.791626 
	C598.123169,304.635254 591.489258,305.164307 584.866516,305.768707 
	C572.442566,306.902435 560.016418,308.011810 545.983765,309.276123 
	C548.283386,310.281128 549.244995,310.865265 550.287842,311.132629 
	C567.186218,315.465454 584.095093,319.757202 601.000549,324.062500 
	C601.803589,324.267029 602.741699,324.317841 603.360352,324.782135 
	C604.302246,325.488983 605.019531,326.495148 605.832214,327.374207 
	C604.767883,327.987762 603.706360,329.117676 602.638733,329.123505 
	C598.482117,329.146301 594.320251,328.864685 590.166321,328.601898 
	C576.382263,327.729950 562.601196,326.808960 548.817444,325.932129 
	C547.389893,325.841309 545.951538,325.919922 544.272583,326.844818 
	C553.871338,331.055511 563.470398,335.265717 573.068848,339.477051 
	C580.523315,342.747711 588.011658,345.945038 595.397766,349.363403 
	C596.659790,349.947449 597.483093,351.479095 598.509094,352.572998 
	C596.880432,353.002441 595.116699,354.072327 593.644226,353.761566 
	C579.978577,350.877594 566.468262,347.087189 552.698669,344.922302 
	C542.345398,343.294495 537.005920,339.036133 533.473816,328.549133 
	C526.681091,308.381348 510.413574,295.817383 491.879303,287.025726 
	C473.454742,278.286133 454.177094,271.362030 435.463470,263.205933 
	C428.508606,260.174744 421.802795,256.337036 415.505676,252.092331 
	C408.011505,247.040726 404.797485,239.531631 406.254791,230.428314 
	C407.712738,221.321152 413.867218,216.288300 422.013763,213.420151 
	C434.926483,208.873947 448.231537,209.097794 461.475037,211.336029 
	C468.158722,212.465622 474.724731,214.500687 481.194702,216.588791 
	C483.988739,217.490509 485.291687,216.780792 486.968842,214.691849 
	C497.802124,201.198669 508.734131,187.783783 519.758667,174.446426 
	C521.015686,172.925735 523.047974,172.045929 524.720764,170.868927 
	C525.382080,171.396866 526.043335,171.924820 526.704651,172.452759 
	C518.237610,189.580322 509.770569,206.707886 501.303558,223.835434 
	C501.463196,223.973450 501.622833,224.111450 501.782501,224.249451 
	C512.263550,215.196457 522.748047,206.147430 533.223816,197.088272 
	C536.621521,194.149963 539.915894,191.084473 543.420837,188.281403 
	C544.849792,187.138580 546.712830,186.538544 548.378418,185.691574 
	C548.743713,186.004684 549.109009,186.317795 549.474304,186.630905 
	C549.038269,188.043503 548.945557,189.711365 548.113953,190.829849 
	C537.931396,204.524979 527.640625,218.139618 517.630981,232.703934 
	C519.487671,231.946091 521.478638,231.412674 523.179749,230.394775 
	C536.577881,222.377274 549.892029,214.219116 563.315247,206.244263 
	C565.067627,205.203140 567.292786,204.957703 569.917786,205.288513 
	C557.787720,219.636261 543.453796,231.456909 530.459351,245.251297 
	C532.398743,244.841324 534.441162,244.693832 536.261230,243.979752 
	C550.467346,238.406052 564.629578,232.720703 578.809143,227.079239 
	C580.040588,226.589294 581.279541,225.882828 582.550293,225.796478 
	C583.710754,225.717621 584.919067,226.344147 586.106323,226.659821 
	C585.598022,227.774628 585.395203,229.326996 584.530212,229.930908 
	C580.039551,233.066025 575.375305,235.951797 570.781616,238.939926 
	C568.693481,240.298218 566.628662,241.692230 564.242554,243.254227 
z"/>
<path fill="#FDFAFB" opacity="1.000000" stroke="none" 
	d="
M299.325073,351.320251 
	C286.250946,354.125214 286.250946,354.125214 282.194244,351.217590 
	C300.908508,342.970459 318.908539,335.038116 336.908539,327.105774 
	C336.864990,326.848572 336.821442,326.591339 336.777863,326.334137 
	C332.338898,326.334137 327.887482,326.118500 323.463257,326.373932 
	C309.183258,327.198334 294.916840,328.262848 280.633942,329.024780 
	C279.191498,329.101715 277.673096,327.754700 276.189941,327.068512 
	C277.407013,326.168427 278.500336,324.797363 279.860077,324.439972 
	C296.256500,320.130646 312.692749,315.972992 329.117157,311.770020 
	C330.985504,311.291931 332.844727,310.778442 334.619568,309.156219 
	C314.356537,307.211090 294.093536,305.265991 273.830505,303.320892 
	C273.675110,302.621094 273.519714,301.921295 273.364349,301.221497 
	C275.104706,300.476746 276.795502,299.245972 278.593109,299.062683 
	C295.970245,297.291229 313.365570,295.698151 330.754486,294.041626 
	C331.499512,293.970673 332.233032,293.778534 333.191772,292.476959 
	C331.807495,291.986145 330.451111,291.387543 329.034668,291.021057 
	C312.941101,286.857178 296.825531,282.777161 280.757324,278.518158 
	C279.090668,278.076385 277.691010,276.627258 276.167450,275.645569 
	C277.846680,275.027191 279.557495,273.798767 281.200256,273.883911 
	C299.643311,274.839691 318.078339,275.961395 336.505920,277.182617 
	C337.736877,277.264191 339.370880,278.218750 340.008667,279.261780 
	C351.049774,297.318451 367.954468,307.990234 386.858673,315.697723 
	C402.979919,322.270569 419.740356,327.290680 435.788330,334.022095 
	C444.355469,337.615692 452.713959,342.514099 459.916687,348.362885 
	C470.582703,357.023895 471.360382,377.317078 454.628693,385.440247 
	C437.222443,393.890869 419.418060,394.380615 401.480072,387.440552 
	C398.062286,386.118225 396.373260,386.573273 394.110321,389.431305 
	C383.783356,402.474030 373.163361,415.284698 362.652100,428.181580 
	C362.126678,428.826263 361.766266,429.787445 361.096863,430.093536 
	C359.831879,430.671906 358.397980,430.880737 357.034241,431.243103 
	C357.006683,429.888611 356.506470,428.309784 357.026154,427.215027 
	C361.305328,418.200287 365.765625,409.271362 370.188049,400.324860 
	C372.753967,395.133911 375.376862,389.970978 377.913818,384.766022 
	C378.446503,383.673218 378.715057,382.451630 378.206055,380.580688 
	C373.466370,384.626709 368.709747,388.653076 363.990692,392.723114 
	C355.673553,399.896423 347.416473,407.140045 339.041016,414.244415 
	C337.553955,415.505798 335.614746,416.234222 333.884338,417.208740 
	C333.386871,416.766418 332.889374,416.324097 332.391907,415.881775 
	C333.214264,414.164734 333.782471,412.258057 334.899445,410.760803 
	C343.353180,399.428833 351.925507,388.185425 360.432251,376.892883 
	C361.999054,374.813019 363.436218,372.635590 364.379700,369.710815 
	C362.838074,370.451477 361.225464,371.074066 359.765869,371.951233 
	C346.236603,380.081665 332.765381,388.309448 319.187042,396.356628 
	C317.281189,397.486084 314.888275,397.793762 312.167328,397.577942 
	C324.920563,382.541199 340.145660,370.334900 353.634338,356.231750 
	C334.348358,362.763550 315.917816,371.568207 296.619019,377.901764 
	C296.190643,377.204956 295.762268,376.508179 295.333893,375.811401 
	C296.516357,374.555634 297.509918,373.013916 298.910645,372.088531 
	C312.356903,363.205658 325.873505,354.429321 339.362732,345.611359 
	C340.170166,345.083527 340.915466,344.460632 341.549164,343.290680 
	C327.251923,344.048035 313.660248,348.573273 299.325073,351.320251 
z"/>
<path fill="#FEFCFD" opacity="1.000000" stroke="none" 
	d="
M214.791565,312.651062 
	C222.464050,281.684814 230.031097,251.119324 237.598145,220.553833 
	C237.942535,220.554779 238.286926,220.555725 238.631332,220.556671 
	C248.541229,260.198090 258.451111,299.839508 268.459595,339.875244 
	C248.039978,339.875244 228.155472,339.875244 207.884842,339.875244 
	C210.206818,330.717651 212.446487,321.884735 214.791565,312.651062 
z"/>
<path fill="#FAF3F5" opacity="1.000000" stroke="none" 
	d="
M555.387573,366.565735 
	C554.726379,366.286438 554.425354,366.118774 554.104065,366.057159 
	C541.797058,363.697693 536.037415,356.755402 539.174194,343.730164 
	C539.939575,344.134003 541.099121,344.634613 542.142822,345.313416 
	C555.741089,354.157562 569.354553,362.979340 582.861633,371.960938 
	C584.269897,372.897369 585.023560,374.818207 586.080933,376.282288 
	C584.125000,376.347717 581.951904,377.003876 580.249878,376.378418 
	C572.009949,373.350037 563.896545,369.977386 555.387573,366.565735 
z"/>
<path fill="#FBF3F5" opacity="1.000000" stroke="none" 
	d="
M301.989624,251.992004 
	C310.981140,253.994720 319.542175,256.002960 328.152435,257.771393 
	C330.915314,258.338867 332.470490,259.538727 333.199188,262.342743 
	C334.261261,266.429810 335.723175,270.412964 337.342957,275.464325 
	C333.803741,274.090210 331.074921,273.138306 328.433014,271.986938 
	C314.783508,266.038452 301.128906,260.099426 287.560699,253.969803 
	C286.097961,253.308990 285.181702,251.438614 284.011932,250.129303 
	C285.653076,249.798828 287.367920,248.990219 288.921234,249.229645 
	C293.176575,249.885559 297.363922,250.982330 301.989624,251.992004 
z"/>
<path fill="#F9F1F3" opacity="1.000000" stroke="none" 
	d="
M539.259460,382.229248 
	C538.897705,377.478027 538.897705,372.896881 538.897705,366.636719 
	C550.274780,377.252960 560.496460,386.791046 570.718079,396.329132 
	C570.344604,397.030121 569.971130,397.731140 569.597717,398.432129 
	C567.473511,397.951843 565.065491,397.956451 563.273987,396.907776 
	C555.293457,392.236084 547.489197,387.263306 539.259460,382.229248 
z"/>
<path fill="#FAF2F5" opacity="1.000000" stroke="none" 
	d="
M322.110291,245.862122 
	C313.911011,240.508163 305.956421,235.434540 298.115631,230.190704 
	C297.075226,229.494904 296.613647,227.933655 295.884033,226.773193 
	C297.354187,226.436234 299.077057,225.426620 300.254456,225.868942 
	C309.533936,229.354980 318.730530,233.066971 327.884186,236.874084 
	C328.818848,237.262833 329.788818,238.678558 329.907562,239.713486 
	C330.299072,243.126038 330.307007,246.582581 330.510193,251.085052 
	C327.455200,249.205414 324.922882,247.647339 322.110291,245.862122 
z"/>
<path fill="#F8ECEF" opacity="1.000000" stroke="none" 
	d="
M330.940979,213.188400 
	C331.385925,216.764816 331.556366,220.099930 331.726776,223.435043 
	C331.090607,223.696518 330.454407,223.958008 329.818237,224.219482 
	C323.646973,218.218338 317.137817,212.550323 312.046936,205.288651 
	C319.964935,204.389450 324.591919,210.340256 330.940979,213.188400 
z"/>
<path fill="#F8EBEE" opacity="1.000000" stroke="none" 
	d="
M544.897339,416.317505 
	C542.071228,413.980988 539.552307,411.832397 537.070496,409.641815 
	C530.421875,403.773346 530.428223,403.766174 535.079041,394.418060 
	C540.403992,401.609650 545.425415,408.391388 550.446838,415.173096 
	C550.082581,415.610840 549.718323,416.048553 549.354065,416.486298 
	C547.976501,416.486298 546.598999,416.486298 544.897339,416.317505 
z"/>
<path fill="#FAEBF2" opacity="1.000000" stroke="none" 
	d="
M799.440491,169.985611 
	C796.611877,173.190033 793.535278,173.806122 789.752747,171.925522 
	C785.909302,170.014694 783.284424,165.131607 784.527161,161.136307 
	C785.225708,158.890640 786.953735,156.965195 788.590454,155.122528 
	C788.983093,155.582855 789.003235,155.816147 789.004639,156.511749 
	C788.985901,161.256775 788.985901,165.539490 788.985901,169.822205 
	C789.550903,169.960571 790.115845,170.098938 790.680847,170.237305 
	C791.314514,168.216934 791.948181,166.196548 792.544189,164.296143 
	C794.836914,166.266586 797.048645,168.167389 799.313599,170.065369 
	C799.366821,170.062515 799.440491,169.985611 799.440491,169.985611 
z"/>
<path fill="#F9E5ED" opacity="1.000000" stroke="none" 
	d="
M789.023438,156.049423 
	C789.003235,155.816147 788.983093,155.582855 788.929565,154.999466 
	C793.990295,151.995087 797.946899,152.608215 801.117859,156.543411 
	C804.119690,160.268661 803.800049,165.535538 799.871826,169.978027 
	C799.440491,169.985611 799.366821,170.062515 799.382446,169.702942 
	C798.503662,167.784485 797.609253,166.225616 797.302917,165.691742 
	C798.010742,162.502884 799.364746,159.928909 798.723511,158.028061 
	C798.309082,156.799835 795.008667,156.395798 792.932190,155.934143 
	C791.698792,155.659897 790.330872,155.990677 789.023438,156.049423 
z"/>
<path fill="#853850" opacity="1.000000" stroke="none" 
	d="
M789.004639,156.511749 
	C790.330872,155.990677 791.698792,155.659897 792.932190,155.934143 
	C795.008667,156.395798 798.309082,156.799835 798.723511,158.028061 
	C799.364746,159.928909 798.010742,162.502884 797.302917,165.691742 
	C797.609253,166.225616 798.503662,167.784485 799.329224,169.705780 
	C797.048645,168.167389 794.836914,166.266586 792.544189,164.296143 
	C791.948181,166.196548 791.314514,168.216934 790.680847,170.237305 
	C790.115845,170.098938 789.550903,169.960571 788.985901,169.822205 
	C788.985901,165.539490 788.985901,161.256775 789.004639,156.511749 
z"/>
</svg>