<svg version="1.1" id="Layer_1" xmlns="http://www.w3.org/2000/svg" xmlns:xlink="http://www.w3.org/1999/xlink" x="0px" y="0px"
	 width="100%" viewBox="0 0 177 184" enable-background="new 0 0 177 184" xml:space="preserve">
<path fill="#FDFDFD" opacity="1.000000" stroke="none" 
	d="
M86.000000,185.000000 
	C57.333336,185.000000 29.166670,185.000000 1.000004,185.000000 
	C1.000003,123.666672 1.000003,62.333344 1.000001,1.000012 
	C59.999989,1.000008 118.999977,1.000008 177.999969,1.000004 
	C177.999985,62.333324 177.999985,123.666649 178.000000,184.999985 
	C147.500000,185.000000 117.000000,185.000000 86.000000,185.000000 
M34.431355,116.246101 
	C34.431355,116.246101 34.867794,116.435883 34.286152,116.968460 
	C34.999840,117.993599 35.510117,119.296936 36.463619,119.994072 
	C39.957932,122.548889 41.043438,125.760017 39.707535,129.836319 
	C38.487476,133.559128 39.310184,136.727219 42.393005,139.174454 
	C45.581982,141.705948 48.926392,141.298065 52.063343,139.164078 
	C55.590954,136.764343 59.050648,136.025269 63.244358,138.578888 
	C62.733536,136.534119 61.956303,134.831833 60.664570,133.736069 
	C56.377728,130.099609 53.608131,134.836151 50.125504,135.823532 
	C48.516819,136.279633 46.135036,136.872604 45.190182,136.090683 
	C43.974289,135.084488 42.907928,132.404770 43.413960,131.063385 
	C45.894062,124.489090 43.423546,120.127434 38.239368,116.300339 
	C35.097866,113.981209 36.006466,110.321945 39.821712,109.169136 
	C41.397213,108.693092 43.099869,108.267838 44.713898,108.359818 
	C49.259350,108.618881 51.249523,106.136856 52.616276,101.679947 
	C55.796730,95.486565 56.674042,95.429100 61.903645,100.299187 
	C62.756660,101.093559 64.557907,100.869705 66.485321,101.218666 
	C64.334671,96.480522 62.477180,92.785545 57.366253,92.931854 
	C53.156723,93.052368 50.807835,95.461769 49.156124,99.847633 
	C48.158737,104.117722 44.919586,104.671989 41.217331,105.014809 
	C34.943230,105.595779 32.701832,108.568771 33.102448,115.583923 
	C33.403786,115.717308 33.705124,115.850700 34.016731,116.005135 
	C34.016731,116.005135 34.032566,115.986351 34.431355,116.246101 
M110.803192,83.284119 
	C110.807137,82.556236 110.811081,81.828354 110.728706,80.433838 
	C109.982948,79.977798 109.237183,79.521767 108.970909,78.484383 
	C108.962494,77.989639 108.954086,77.494904 109.039024,76.262978 
	C105.917946,75.089272 102.796875,73.915558 99.233871,72.293510 
	C98.435280,72.319023 97.636696,72.344543 95.940399,72.448372 
	C91.876274,72.554680 87.812157,72.660995 83.177940,72.223396 
	C82.211380,72.417419 81.244820,72.611443 79.522942,72.669334 
	C75.853630,72.613708 73.412933,74.066917 72.999870,78.000740 
	C72.999870,78.000740 72.993195,77.986717 72.234299,78.021851 
	C66.629883,83.958885 65.578079,91.324844 69.388382,97.952316 
	C71.137924,100.995392 73.398621,101.035103 75.116447,97.919464 
	C76.710526,95.028267 77.988777,91.962135 79.598907,89.080780 
	C81.994102,84.794518 85.687561,82.768982 90.675774,82.962158 
	C97.507240,83.226707 100.042511,88.167519 102.678207,93.319710 
	C103.928474,95.763680 105.950325,97.812920 107.622627,100.040993 
	C109.487762,97.811707 112.029205,95.845657 113.028091,93.279213 
	C114.029839,90.705429 114.117638,87.284843 110.137985,85.957283 
	C110.137985,85.957283 110.037086,85.739044 110.458839,85.096741 
	C110.356720,84.617661 110.254601,84.138573 110.071404,83.661163 
	C110.071404,83.661163 110.222610,83.742645 110.803192,83.284119 
M134.821899,98.613045 
	C138.054489,99.912476 141.287079,101.211906 145.426346,102.875801 
	C143.676834,97.390190 142.338898,93.195099 141.071884,88.246346 
	C139.183472,86.487579 137.433060,83.430511 135.380875,83.212341 
	C129.106995,82.545372 122.717072,82.970047 115.856209,82.970047 
	C116.337387,84.981476 116.877388,87.238808 117.459579,89.672523 
	C125.990036,87.220078 131.203735,90.858528 134.821899,98.613045 
M106.256149,103.971588 
	C104.776962,102.937645 102.813049,102.212250 101.918175,100.806374 
	C99.976280,97.755554 98.740753,94.264648 96.926735,91.120834 
	C93.672005,85.480194 86.563568,85.396111 83.160561,90.900276 
	C82.122131,92.579872 81.089394,94.366096 80.572388,96.246040 
	C78.873566,102.423340 74.601936,104.620087 68.607864,104.846611 
	C63.934063,105.023239 58.956802,105.341133 57.165417,110.829193 
	C55.285748,116.587723 59.725655,119.555763 63.156544,122.858627 
	C63.386040,123.079559 63.714745,123.197433 64.094353,123.980453 
	C65.037262,124.646843 65.980179,125.313225 67.052704,126.691483 
	C67.513191,128.125137 68.466347,129.604019 68.339638,130.983749 
	C67.991867,134.770874 66.975601,138.495972 66.616676,142.282837 
	C66.001106,148.777374 72.268837,153.614456 77.645142,150.052277 
	C86.221245,144.369965 93.574852,144.155991 102.217857,149.990234 
	C107.799797,153.758179 114.908691,148.543121 113.130096,142.003586 
	C110.414917,132.020416 112.637711,124.946655 120.862236,118.552567 
	C125.924164,114.617203 123.250854,107.256989 116.809883,105.676483 
	C113.609604,104.891205 110.277100,104.644745 106.256149,103.971588 
M130.504654,136.086411 
	C128.443680,135.025864 126.472076,133.425537 124.295181,133.065094 
	C122.337471,132.740952 119.927521,133.374939 118.159653,134.371490 
	C117.168571,134.930161 117.075935,137.082672 116.578499,138.517059 
	C121.022720,135.825684 124.348328,136.812775 127.766632,139.105118 
	C130.898529,141.205399 134.246613,141.763641 137.487274,139.279922 
	C140.610153,136.886459 141.489914,133.746231 140.337479,129.970230 
	C139.122406,125.988937 139.814728,122.674713 143.453308,120.065468 
	C146.725708,117.718819 148.096146,114.277000 146.760681,110.393974 
	C145.405609,106.453957 142.063980,104.976318 138.094299,104.925850 
	C134.358276,104.878357 131.992661,103.374733 130.679123,99.657677 
	C129.290054,95.726845 126.840576,92.573074 121.941406,92.936913 
	C117.168259,93.291397 115.431923,96.734299 113.373840,102.152992 
	C115.934090,100.913116 117.648621,100.583237 118.568970,99.547592 
	C121.955032,95.737358 124.900673,95.685875 126.647621,100.423233 
	C128.745300,106.111656 132.162186,108.857384 138.184219,109.074883 
	C139.817200,109.133865 142.296783,110.489418 142.744873,111.808121 
	C143.212433,113.184151 142.216110,115.934189 140.957962,116.866325 
	C135.857086,120.645493 134.728348,125.041489 136.607941,131.059509 
	C137.918365,135.255188 135.960602,136.800308 130.504654,136.086411 
M89.593086,69.098961 
	C94.445007,69.272758 97.905914,67.009659 99.830925,62.705860 
	C101.590508,58.771912 100.979691,54.924908 98.228470,51.542545 
	C94.987160,47.557655 90.701599,46.915512 86.110626,48.312283 
	C82.028923,49.554119 78.902664,54.539284 79.103218,58.784359 
	C79.354256,64.097649 82.559464,67.511436 89.593086,69.098961 
M52.050034,90.131943 
	C55.564270,89.617142 59.078506,89.102333 62.762383,88.562675 
	C63.210716,86.762680 63.711105,84.753700 64.299950,82.389603 
	C59.458920,82.389603 55.181343,82.697769 50.964581,82.322517 
	C43.269573,81.637726 40.117519,83.593300 38.054977,91.069809 
	C37.069927,94.640495 36.111443,98.218506 35.117985,101.877693 
	C41.103073,101.587624 45.982204,100.303276 47.900925,93.940857 
	C48.314968,92.567909 50.171337,91.629929 52.050034,90.131943 
M54.043579,79.505966 
	C58.750935,80.258430 62.126461,78.333870 63.980007,74.087852 
	C65.949966,69.575150 63.717117,64.495758 59.224766,62.585720 
	C54.684311,60.655228 49.715916,62.593506 47.631298,67.108574 
	C45.350525,72.048492 47.508728,76.667686 54.043579,79.505966 
M122.214607,79.376472 
	C126.658173,80.359467 130.009979,78.780754 132.134872,74.850525 
	C134.567245,70.351547 132.688431,64.981514 128.061325,62.718193 
	C123.742172,60.605511 118.336357,62.456493 116.265976,66.756989 
	C113.926796,71.615852 115.892509,76.302299 122.214607,79.376472 
z"/>
<path fill="#FBFBFB" opacity="1.000000" stroke="none" 
	d="
M66.923096,125.979607 
	C65.980179,125.313225 65.037262,124.646843 64.406281,123.481812 
	C63.945568,120.891472 63.578663,118.504707 62.316402,116.769119 
	C59.635357,113.082748 60.510223,109.984062 64.968407,109.157242 
	C67.569153,108.674896 70.202843,108.195129 72.835709,108.099388 
	C77.528587,107.928741 80.898270,106.391586 82.345215,101.439896 
	C83.120415,98.787086 84.657898,96.328934 86.034874,93.886375 
	C88.346176,89.786415 91.600853,89.716568 93.904846,93.740227 
	C95.379807,96.316086 96.929581,98.939507 97.817566,101.740761 
	C99.302361,106.424721 102.364929,108.192078 107.409851,107.974129 
	C110.114647,108.414322 112.495705,108.493416 114.684380,109.183060 
	C116.265686,109.681335 118.523209,110.781265 118.795685,111.991798 
	C119.138229,113.513550 118.288284,116.198387 117.045021,117.039772 
	C107.765480,123.319740 105.895920,131.463806 109.435768,141.754959 
	C110.779655,145.661972 106.889305,148.839890 103.661331,146.469101 
	C94.358109,139.636322 85.736946,139.428421 76.404137,146.430481 
	C73.177330,148.851440 69.816902,145.926178 70.438980,141.786667 
	C71.005699,138.015503 71.690102,134.261703 72.348045,130.504700 
	C73.138275,125.992256 71.657280,124.748581 66.923096,125.979607 
z"/>
<path fill="#040404" opacity="1.000000" stroke="none" 
	d="
M83.748032,72.767303 
	C87.812157,72.660995 91.876274,72.554680 96.429573,72.733261 
	C97.837761,72.926041 98.756783,72.833939 99.675797,72.741837 
	C102.796875,73.915558 105.917946,75.089272 108.682556,76.676117 
	C107.651108,78.331871 102.949387,79.100548 107.931808,81.319092 
	C108.056046,82.065475 108.114120,82.494019 108.105103,83.196960 
	C107.997711,83.655128 107.957413,83.838890 107.669212,84.145294 
	C107.988045,85.159180 108.554794,86.050430 109.442612,86.730789 
	C109.936073,86.330544 110.108467,86.141167 110.280861,85.951790 
	C114.117638,87.284843 114.029839,90.705429 113.028091,93.279213 
	C112.029205,95.845657 109.487762,97.811707 107.622620,100.040985 
	C105.950325,97.812920 103.928474,95.763680 102.678207,93.319710 
	C100.042511,88.167519 97.507240,83.226707 90.675774,82.962158 
	C85.687561,82.768982 81.994102,84.794518 79.598907,89.080780 
	C77.988777,91.962135 76.710526,95.028267 75.116447,97.919464 
	C73.398621,101.035103 71.137924,100.995392 69.388382,97.952316 
	C65.578079,91.324844 66.629883,83.958885 72.630035,78.255432 
	C73.176765,78.760612 73.327751,79.032219 73.478737,79.303825 
	C73.675583,78.885025 73.872437,78.466232 74.199234,77.974411 
	C74.201935,77.908997 74.074692,77.916618 73.707199,77.944519 
	C73.466949,77.964790 72.985542,77.992622 72.985542,77.992622 
	C73.412933,74.066917 75.853630,72.613708 80.479599,72.782219 
	C82.206841,72.852509 82.977440,72.809906 83.748032,72.767303 
M94.475288,77.367798 
	C94.529396,77.157913 94.583504,76.948036 94.637611,76.738152 
	C94.504799,76.873016 94.371979,77.007889 94.475288,77.367798 
z"/>
<path fill="#090909" opacity="1.000000" stroke="none" 
	d="
M66.987900,126.335541 
	C71.657280,124.748581 73.138275,125.992256 72.348045,130.504700 
	C71.690102,134.261703 71.005699,138.015503 70.438980,141.786667 
	C69.816902,145.926178 73.177330,148.851440 76.404137,146.430481 
	C85.736946,139.428421 94.358109,139.636322 103.661331,146.469101 
	C106.889305,148.839890 110.779655,145.661972 109.435768,141.754959 
	C105.895920,131.463806 107.765480,123.319740 117.045021,117.039772 
	C118.288284,116.198387 119.138229,113.513550 118.795685,111.991798 
	C118.523209,110.781265 116.265686,109.681335 114.684380,109.183060 
	C112.495705,108.493416 110.114647,108.414322 107.406204,107.602142 
	C106.999092,106.138527 107.001755,105.146530 107.004410,104.154533 
	C110.277100,104.644745 113.609604,104.891205 116.809883,105.676483 
	C123.250854,107.256989 125.924164,114.617203 120.862236,118.552567 
	C112.637711,124.946655 110.414917,132.020416 113.130096,142.003586 
	C114.908691,148.543121 107.799797,153.758179 102.217857,149.990234 
	C93.574852,144.155991 86.221245,144.369965 77.645142,150.052277 
	C72.268837,153.614456 66.001106,148.777374 66.616676,142.282837 
	C66.975601,138.495972 67.991867,134.770874 68.339638,130.983749 
	C68.466347,129.604019 67.513191,128.125137 66.987900,126.335541 
z"/>
<path fill="#0B0B0B" opacity="1.000000" stroke="none" 
	d="
M130.829391,136.288574 
	C135.960602,136.800308 137.918365,135.255188 136.607941,131.059509 
	C134.728348,125.041489 135.857086,120.645493 140.957962,116.866325 
	C142.216110,115.934189 143.212433,113.184151 142.744873,111.808121 
	C142.296783,110.489418 139.817200,109.133865 138.184219,109.074883 
	C132.162186,108.857384 128.745300,106.111656 126.647621,100.423233 
	C124.900673,95.685875 121.955032,95.737358 118.568970,99.547592 
	C117.648621,100.583237 115.934090,100.913116 113.373840,102.152992 
	C115.431923,96.734299 117.168259,93.291397 121.941406,92.936913 
	C126.840576,92.573074 129.290054,95.726845 130.679123,99.657677 
	C131.992661,103.374733 134.358276,104.878357 138.094299,104.925850 
	C142.063980,104.976318 145.405609,106.453957 146.760681,110.393974 
	C148.096146,114.277000 146.725708,117.718819 143.453308,120.065468 
	C139.814728,122.674713 139.122406,125.988937 140.337479,129.970230 
	C141.489914,133.746231 140.610153,136.886459 137.487274,139.279922 
	C134.246613,141.763641 130.898529,141.205399 127.766632,139.105118 
	C124.348328,136.812775 121.022720,135.825684 116.578499,138.517059 
	C117.075935,137.082672 117.168571,134.930161 118.159653,134.371490 
	C119.927521,133.374939 122.337471,132.740952 124.295181,133.065094 
	C126.472076,133.425537 128.443680,135.025864 130.829391,136.288574 
z"/>
<path fill="#050505" opacity="1.000000" stroke="none" 
	d="
M89.183327,69.091461 
	C82.559464,67.511436 79.354256,64.097649 79.103218,58.784359 
	C78.902664,54.539284 82.028923,49.554119 86.110626,48.312283 
	C90.701599,46.915512 94.987160,47.557655 98.228470,51.542545 
	C100.979691,54.924908 101.590508,58.771912 99.830925,62.705860 
	C97.905914,67.009659 94.445007,69.272758 89.183327,69.091461 
z"/>
<path fill="#0F0F0F" opacity="1.000000" stroke="none" 
	d="
M106.630280,104.063065 
	C107.001755,105.146530 106.999092,106.138527 107.000076,107.502502 
	C102.364929,108.192078 99.302361,106.424721 97.817566,101.740761 
	C96.929581,98.939507 95.379807,96.316086 93.904846,93.740227 
	C91.600853,89.716568 88.346176,89.786415 86.034874,93.886375 
	C84.657898,96.328934 83.120415,98.787086 82.345215,101.439896 
	C80.898270,106.391586 77.528587,107.928741 72.835709,108.099388 
	C70.202843,108.195129 67.569153,108.674896 64.968407,109.157242 
	C60.510223,109.984062 59.635357,113.082748 62.316402,116.769119 
	C63.578663,118.504707 63.945568,120.891472 64.357758,123.173203 
	C63.714745,123.197433 63.386040,123.079559 63.156544,122.858627 
	C59.725655,119.555763 55.285748,116.587723 57.165417,110.829193 
	C58.956802,105.341133 63.934063,105.023239 68.607864,104.846611 
	C74.601936,104.620087 78.873566,102.423340 80.572388,96.246040 
	C81.089394,94.366096 82.122131,92.579872 83.160561,90.900276 
	C86.563568,85.396111 93.672005,85.480194 96.926735,91.120834 
	C98.740753,94.264648 99.976280,97.755554 101.918175,100.806374 
	C102.813049,102.212250 104.776962,102.937645 106.630280,104.063065 
z"/>
<path fill="#090909" opacity="1.000000" stroke="none" 
	d="
M33.156311,115.007286 
	C32.701832,108.568771 34.943230,105.595779 41.217331,105.014809 
	C44.919586,104.671989 48.158737,104.117722 49.581757,99.927704 
	C50.691010,100.715515 51.374626,101.423264 52.058247,102.131012 
	C51.249523,106.136856 49.259350,108.618881 44.713898,108.359818 
	C43.099869,108.267838 41.397213,108.693092 39.821712,109.169136 
	C36.006466,110.321945 35.097866,113.981209 38.239368,116.300339 
	C43.423546,120.127434 45.894062,124.489090 43.413960,131.063385 
	C42.907928,132.404770 43.974289,135.084488 45.190182,136.090683 
	C46.135036,136.872604 48.516819,136.279633 50.125504,135.823532 
	C53.608131,134.836151 56.377728,130.099609 60.664570,133.736069 
	C61.956303,134.831833 62.733536,136.534119 63.244358,138.578888 
	C59.050648,136.025269 55.590954,136.764343 52.063343,139.164078 
	C48.926392,141.298065 45.581982,141.705948 42.393005,139.174454 
	C39.310184,136.727219 38.487476,133.559128 39.707535,129.836319 
	C41.043438,125.760017 39.957932,122.548889 36.463619,119.994072 
	C35.510117,119.296936 34.999840,117.993599 34.500298,116.629890 
	C34.535526,116.091293 34.308231,115.989632 34.032566,115.986351 
	C34.032566,115.986351 34.016731,116.005135 33.923668,115.789680 
	C33.664783,115.315147 33.440022,115.126167 33.156311,115.007286 
z"/>
<path fill="#070707" opacity="1.000000" stroke="none" 
	d="
M51.706684,90.311768 
	C50.171337,91.629929 48.314968,92.567909 47.900925,93.940857 
	C45.982204,100.303276 41.103073,101.587624 35.117985,101.877693 
	C36.111443,98.218506 37.069927,94.640495 38.054977,91.069809 
	C40.117519,83.593300 43.269573,81.637726 50.964581,82.322517 
	C55.181343,82.697769 59.458920,82.389603 64.299950,82.389603 
	C63.711105,84.753700 63.210716,86.762680 62.762383,88.562675 
	C59.078506,89.102333 55.564270,89.617142 51.706684,90.311768 
z"/>
<path fill="#060606" opacity="1.000000" stroke="none" 
	d="
M53.678230,79.387413 
	C47.508728,76.667686 45.350525,72.048492 47.631298,67.108574 
	C49.715916,62.593506 54.684311,60.655228 59.224766,62.585720 
	C63.717117,64.495758 65.949966,69.575150 63.980007,74.087852 
	C62.126461,78.333870 58.750935,80.258430 53.678230,79.387413 
z"/>
<path fill="#070707" opacity="1.000000" stroke="none" 
	d="
M121.842979,79.271790 
	C115.892509,76.302299 113.926796,71.615852 116.265976,66.756989 
	C118.336357,62.456493 123.742172,60.605511 128.061325,62.718193 
	C132.688431,64.981514 134.567245,70.351547 132.134872,74.850525 
	C130.009979,78.780754 126.658173,80.359467 121.842979,79.271790 
z"/>
<path fill="#050505" opacity="1.000000" stroke="none" 
	d="
M134.676178,97.936363 
	C131.203735,90.858528 125.990036,87.220078 117.459579,89.672523 
	C116.877388,87.238808 116.337387,84.981476 115.856209,82.970047 
	C122.717072,82.970047 129.106995,82.545372 135.380875,83.212341 
	C137.433060,83.430511 139.183472,86.487579 140.682693,88.687485 
	C138.421051,92.064537 136.548615,95.000450 134.676178,97.936363 
z"/>
<path fill="#0D0D0D" opacity="1.000000" stroke="none" 
	d="
M52.337261,101.905479 
	C51.374626,101.423264 50.691010,100.715515 49.853638,99.668472 
	C50.807835,95.461769 53.156723,93.052368 57.366253,92.931854 
	C62.477180,92.785545 64.334671,96.480522 66.485321,101.218666 
	C64.557907,100.869705 62.756660,101.093559 61.903645,100.299187 
	C56.674042,95.429100 55.796730,95.486565 52.337261,101.905479 
z"/>
<path fill="#0A0A0A" opacity="1.000000" stroke="none" 
	d="
M134.749039,98.274704 
	C136.548615,95.000450 138.421051,92.064537 140.647232,89.064323 
	C142.338898,93.195099 143.676834,97.390190 145.426346,102.875801 
	C141.287079,101.211906 138.054489,99.912476 134.749039,98.274704 
z"/>
<path fill="#040404" opacity="1.000000" stroke="none" 
	d="
M107.865646,81.001259 
	C102.949387,79.100548 107.651108,78.331871 108.635880,77.044708 
	C108.954086,77.494904 108.962494,77.989639 108.464844,78.887390 
	C107.927734,79.860687 107.896690,80.430969 107.865646,81.001259 
z"/>
<path fill="#616161" opacity="1.000000" stroke="none" 
	d="
M107.931808,81.319092 
	C107.896690,80.430969 107.927734,79.860687 108.225098,79.178062 
	C109.237183,79.521767 109.982948,79.977798 110.454102,80.779907 
	C109.815010,81.748901 109.450516,82.371826 108.857559,82.976837 
	C108.629082,82.958916 108.172188,82.922569 108.172195,82.922569 
	C108.114120,82.494019 108.056046,82.065475 107.931808,81.319092 
z"/>
<path fill="#040404" opacity="1.000000" stroke="none" 
	d="
M109.121536,86.941673 
	C108.554794,86.050430 107.988045,85.159180 108.238892,84.119392 
	C109.421814,83.867065 109.787148,83.763275 110.152489,83.659492 
	C110.254601,84.138573 110.356720,84.617661 109.952469,85.670319 
	C109.337906,86.476486 109.229721,86.709076 109.121536,86.941673 
z"/>
<path fill="#040404" opacity="1.000000" stroke="none" 
	d="
M99.454834,72.517670 
	C98.756783,72.833939 97.837761,72.926041 96.878426,72.694099 
	C97.636696,72.344543 98.435280,72.319023 99.454834,72.517670 
z"/>
<path fill="#030303" opacity="1.000000" stroke="none" 
	d="
M109.086029,82.994751 
	C109.450516,82.371826 109.815010,81.748901 110.497261,81.113220 
	C110.811081,81.828354 110.807137,82.556236 110.280869,83.246231 
	C109.534363,83.137138 109.310196,83.065941 109.086029,82.994751 
z"/>
<path fill="#424242" opacity="1.000000" stroke="none" 
	d="
M108.857552,82.976830 
	C109.310196,83.065941 109.534363,83.137138 109.990570,83.475494 
	C110.222610,83.742645 110.071404,83.661163 110.111946,83.660324 
	C109.787148,83.763275 109.421814,83.867065 108.486801,83.996750 
	C107.957413,83.838890 107.997711,83.655128 108.105095,83.196960 
	C108.172188,82.922569 108.629082,82.958916 108.857552,82.976830 
z"/>
<path fill="#040404" opacity="1.000000" stroke="none" 
	d="
M83.462982,72.495346 
	C82.977440,72.809906 82.206841,72.852509 80.857254,72.850281 
	C81.244820,72.611443 82.211380,72.417419 83.462982,72.495346 
z"/>
<path fill="#424242" opacity="1.000000" stroke="none" 
	d="
M109.442612,86.730789 
	C109.229721,86.709076 109.337906,86.476486 109.741592,85.991470 
	C110.037086,85.739044 110.137985,85.957283 110.209427,85.954536 
	C110.108467,86.141167 109.936073,86.330544 109.442612,86.730789 
z"/>
<path fill="#0D0D0D" opacity="1.000000" stroke="none" 
	d="
M33.129379,115.295609 
	C33.440022,115.126167 33.664783,115.315147 33.918533,115.779160 
	C33.705124,115.850700 33.403786,115.717308 33.129379,115.295609 
z"/>
<path fill="#0D0D0D" opacity="1.000000" stroke="none" 
	d="
M34.231960,116.116226 
	C34.308231,115.989632 34.535526,116.091293 34.791122,116.363602 
	C34.867794,116.435883 34.431355,116.246101 34.231960,116.116226 
z"/>
<path fill="#040404" opacity="1.000000" stroke="none" 
	d="
M94.357224,77.255280 
	C94.371979,77.007889 94.504799,76.873016 94.637611,76.738152 
	C94.583504,76.948036 94.529396,77.157913 94.357224,77.255280 
z"/>
<path fill="#040404" opacity="1.000000" stroke="none" 
	d="
M74.069290,78.047440 
	C73.872437,78.466232 73.675583,78.885025 73.478737,79.303825 
	C73.327751,79.032219 73.176765,78.760612 73.009491,78.237862 
	C72.993195,77.986717 72.999870,78.000740 72.992706,77.996681 
	C72.985542,77.992622 73.466949,77.964790 73.734955,77.977997 
	C74.002953,77.991203 74.069290,78.047440 74.069290,78.047440 
z"/>
<path fill="#040404" opacity="1.000000" stroke="none" 
	d="
M73.975204,77.957718 
	C74.074692,77.916618 74.201935,77.908997 74.199234,77.974411 
	C74.069290,78.047440 74.002953,77.991203 73.975204,77.957718 
z"/>
</svg>