<svg version="1.1" id="Layer_1" xmlns="http://www.w3.org/2000/svg" xmlns:xlink="http://www.w3.org/1999/xlink" x="0px" y="0px"
	 width="100%" viewBox="0 0 1024 768" enable-background="new 0 0 1024 768" xml:space="preserve">
<path fill="#000000" opacity="1.000000" stroke="none" 
	d="
M403.810272,399.500061 
	C399.410004,428.893433 374.771149,458.404297 342.320465,464.759033 
	C298.739746,473.293274 254.601212,441.705383 249.595917,397.542816 
	C246.468124,369.945923 253.137024,345.259460 273.545654,326.028046 
	C295.238831,305.586151 321.365326,298.337738 350.136566,307.902954 
	C378.553711,317.350464 396.864288,337.082275 403.368042,366.848572 
	C405.702209,377.531616 405.769348,388.302704 403.810272,399.500061 
M314.459808,345.905518 
	C287.010681,357.286957 283.184937,386.046265 292.822662,405.041595 
	C304.511414,428.079315 331.498138,433.810394 351.635315,417.786346 
	C363.798767,408.107269 366.791290,394.894165 365.738068,380.175964 
	C363.916260,354.717316 337.062042,337.320343 314.459808,345.905518 
z"/>
<path fill="#000000" opacity="1.000000" stroke="none" 
	d="
M579.467163,420.367981 
	C565.806396,388.557648 571.662659,350.628784 594.649353,328.028473 
	C616.944763,306.107788 643.853516,297.829285 673.944397,308.101471 
	C703.781311,318.286987 722.802551,339.322144 727.359314,371.301605 
	C731.919250,403.303497 721.960388,430.286835 696.518250,450.641144 
	C666.344543,474.780823 617.616089,471.080383 590.726746,437.869141 
	C586.410217,432.537689 582.622681,426.885284 579.467163,420.367981 
M612.524475,394.867004 
	C612.819702,395.993774 613.078796,397.131500 613.415527,398.245728 
	C620.639282,422.152740 650.731750,437.909637 675.048096,417.759460 
	C688.281738,406.793182 691.128235,392.308197 688.582031,376.280304 
	C684.618896,351.332489 653.206665,332.005585 627.780823,351.472900 
	C613.646973,362.294495 609.384766,376.908813 612.524475,394.867004 
z"/>
<path fill="#000000" opacity="1.000000" stroke="none" 
	d="
M423.765533,453.750641 
	C422.779388,450.441193 422.666168,447.457550 422.667084,444.447937 
	C422.679535,403.965668 422.661072,363.483398 422.685150,323.001129 
	C422.692139,311.230835 425.534210,308.189758 437.173767,306.295227 
	C441.926880,305.521606 446.510071,306.095490 451.036926,307.085938 
	C458.176697,308.648163 461.155212,312.865692 461.252228,321.517883 
	C461.405334,335.176910 461.498199,348.842285 461.229279,362.497345 
	C461.138062,367.128296 462.453491,368.372284 467.133209,368.253998 
	C481.617981,367.887756 496.118896,367.963654 510.609802,368.154205 
	C515.187622,368.214386 516.745239,366.606476 516.678711,362.048370 
	C516.481750,348.557678 516.593506,335.061432 516.683899,321.567993 
	C516.750000,311.702576 520.023254,308.185242 529.516113,306.398285 
	C534.770508,305.409149 539.832886,306.086243 544.866150,307.084473 
	C551.161438,308.332977 554.263977,311.971832 555.075439,318.395416 
	C555.345459,320.533447 555.304321,322.718292 555.304749,324.881744 
	C555.313049,365.197388 555.312988,405.513062 555.298218,445.828705 
	C555.293884,457.658447 552.548584,460.856903 540.905212,462.647064 
	C539.266663,462.899017 537.597290,463.070801 535.941833,463.073669 
	C521.382935,463.098816 516.753052,458.544708 516.668213,443.998016 
	C516.595337,431.503937 516.508240,419.007202 516.701172,406.515839 
	C516.764954,402.386871 515.350891,400.983063 511.232025,401.031555 
	C496.407288,401.206207 481.578186,401.192505 466.753052,401.034454 
	C462.713470,400.991364 461.186066,402.269409 461.251068,406.477234 
	C461.462097,420.134583 461.359894,433.797455 461.308838,447.457977 
	C461.272369,457.220367 457.911102,460.837891 448.275879,462.465637 
	C443.573395,463.260071 438.983887,463.159088 434.395203,462.188843 
	C429.661560,461.187958 425.465118,459.330688 423.765533,453.750641 
z"/>
<path fill="#000000" opacity="1.000000" stroke="none" 
	d="
M197.865570,379.831116 
	C186.918396,394.900513 176.189682,409.686920 165.456680,424.479248 
	C167.593475,426.515930 169.693008,425.852539 171.578979,425.853058 
	C185.905319,425.857025 200.237076,425.992920 214.556778,425.652496 
	C233.979095,425.190735 236.834442,432.787903 234.888870,450.969696 
	C233.955948,459.687897 230.404816,462.218964 221.456055,463.590088 
	C216.964478,464.278320 212.487305,464.159821 207.998764,464.165344 
	C182.010376,464.197266 156.021927,464.188751 130.033508,464.188904 
	C124.227989,464.188934 118.771843,463.047089 114.219292,459.141357 
	C106.292610,452.340912 105.074371,441.424255 111.437614,432.618317 
	C126.948540,411.153198 142.550781,389.754059 158.103134,368.318817 
	C163.559998,360.797852 168.978638,353.249176 174.410934,345.718414 
	C172.418823,343.631989 170.298416,344.351440 168.434387,344.341888 
	C153.774643,344.266663 139.114273,344.325439 124.454224,344.291016 
	C112.360130,344.262634 107.721176,339.708344 107.659492,327.757965 
	C107.639801,323.943542 107.315918,320.106323 108.361588,316.330719 
	C110.113747,310.004272 113.606766,306.741180 120.053780,306.715668 
	C151.705673,306.590393 183.359314,306.513184 215.009872,306.748810 
	C221.756912,306.799042 227.107407,310.492828 230.062805,316.725006 
	C233.241959,323.429047 233.673492,330.290863 229.128998,336.639282 
	C218.853104,350.994049 208.440842,365.251251 197.865570,379.831116 
z"/>
<path fill="#000000" opacity="1.000000" stroke="none" 
	d="
M912.023682,304.455811 
	C919.497620,307.335114 921.796570,310.834290 921.838013,319.204437 
	C921.908936,333.520050 921.938660,347.835968 921.940125,362.151764 
	C921.941162,372.989777 917.282837,377.872528 906.552612,377.958649 
	C891.729492,378.077606 876.904053,378.067719 862.080688,377.961578 
	C853.022217,377.896729 847.917786,373.039215 847.821228,364.162689 
	C847.652710,348.674133 847.676880,333.181641 847.807556,317.692383 
	C847.873474,309.883789 852.213074,304.417938 859.702515,304.212067 
	C876.997864,303.736664 894.316650,303.483429 912.023682,304.455811 
z"/>
<path fill="#000000" opacity="1.000000" stroke="none" 
	d="
M768.305420,392.805237 
	C786.348755,391.466370 804.005005,392.002930 821.640930,392.405487 
	C829.075623,392.575195 833.316162,397.770111 833.349915,405.302551 
	C833.420105,420.960663 833.416931,436.619476 833.351685,452.277618 
	C833.316711,460.664185 828.642761,465.893188 820.207458,466.046631 
	C804.221436,466.337555 788.222839,466.328156 772.236450,466.046326 
	C763.944153,465.900146 759.643188,460.909332 759.613770,452.518738 
	C759.558167,436.694458 759.596802,420.869629 759.486267,405.045807 
	C759.443481,398.922089 762.244385,394.965393 768.305420,392.805237 
z"/>
<path fill="#000000" opacity="1.000000" stroke="none" 
	d="
M827.445068,375.723663 
	C824.593506,377.391235 821.775452,377.891571 818.955811,377.920319 
	C808.973083,378.022247 798.987854,378.032562 789.005005,377.932434 
	C781.724609,377.859436 774.972656,373.293457 775.473755,363.598175 
	C775.970642,353.985535 775.485718,344.319336 775.352722,334.677734 
	C775.227600,325.607391 779.548828,320.361328 788.579834,320.009674 
	C799.047058,319.602081 809.549988,319.633636 820.021545,319.968872 
	C828.357178,320.235748 833.077148,325.516632 833.140198,333.854797 
	C833.216919,344.004669 833.122009,354.155701 833.162231,364.306000 
	C833.180664,368.948975 831.558594,372.732788 827.445068,375.723663 
z"/>
<path fill="#000000" opacity="1.000000" stroke="none" 
	d="
M853.490601,447.770477 
	C849.240112,444.633026 847.688660,440.663635 847.721619,435.845734 
	C847.789917,425.858521 847.670593,415.869965 847.741211,405.882782 
	C847.799255,397.671478 851.742554,392.765442 859.959717,392.393005 
	C871.414429,391.873810 882.927307,391.952148 894.385620,392.453278 
	C901.510559,392.764893 905.425415,397.546844 905.481934,404.753815 
	C905.569397,415.904907 905.502808,427.059448 905.320618,438.209564 
	C905.227356,443.914062 901.687927,448.731232 896.367249,449.245178 
	C883.441956,450.493683 870.455811,450.246429 857.499207,449.378113 
	C856.243591,449.293945 855.037354,448.471527 853.490601,447.770477 
z"/>
</svg>